<svg xmlns="http://www.w3.org/2000/svg" width="688" height="688" fill="none"><path fill="#5148E7" d="M203.21 395.793h-83.73v-37.799l83.73-99.54h40.069V360.14h20.764v35.653h-20.764v30.932H203.21v-30.932Zm0-35.653v-52.067l-44.252 52.067h44.252ZM278.368 343.326c0-31.456 5.66-53.472 16.98-66.048 11.32-12.577 28.571-18.861 51.752-18.851 11.127 0 20.268 1.376 27.423 4.128a50.622 50.622 0 0 1 17.489 10.719 57.185 57.185 0 0 1 10.664 13.884 72.062 72.062 0 0 1 6.261 16.979 158.709 158.709 0 0 1 4.623 38.528c0 30.016-5.077 51.981-15.232 65.897-10.155 13.916-27.644 20.879-52.467 20.888-13.925 0-25.176-2.22-33.753-6.66a54.702 54.702 0 0 1-21.094-19.526c-3.991-6.091-7.096-14.425-9.316-25.002a171.158 171.158 0 0 1-3.33-34.936Zm45.601.11c0 21.099 1.858 35.487 5.573 43.165 3.715 7.678 9.114 11.536 16.195 11.572a16.985 16.985 0 0 0 12.137-4.912c3.43-3.275 5.953-8.449 7.568-15.521 1.614-7.073 2.421-18.081 2.421-33.024 0-21.961-1.862-36.726-5.586-44.294-3.725-7.568-9.311-11.347-16.76-11.338-7.595 0-13.099 3.857-16.512 11.572-3.412 7.715-5.091 21.975-5.036 42.78ZM511.519 395.793h-83.73v-37.799l83.73-99.54h40.069v101.687h20.832v35.652h-20.832v30.932h-40.069v-30.932Zm0-35.652v-52.068l-44.239 52.068h44.239Z"/><g fill="#5148E7" opacity=".3"><path d="M276.572 200.373a2.58 2.58 0 0 1-3.08 2.523 2.575 2.575 0 0 1-.913-4.669c.425-.281.924-.43 1.434-.427a2.565 2.565 0 0 1 2.368 1.589c.128.313.193.647.191.984ZM100.406 299.211a1.816 1.816 0 1 0 0-3.632 1.816 1.816 0 0 0 0 3.632ZM400.483 564.463a2.601 2.601 0 1 0 0-5.202 2.601 2.601 0 0 0 0 5.202ZM463.023 458.648a1.817 1.817 0 1 0 0-3.634 1.817 1.817 0 0 0 0 3.634ZM583.656 131.573a1.811 1.811 0 0 1-1.121 1.678 1.814 1.814 0 0 1-2.373-2.373 1.813 1.813 0 0 1 1.678-1.121 1.816 1.816 0 0 1 1.816 1.816ZM237.703 94.944a1.821 1.821 0 0 1-1.121 1.678 1.818 1.818 0 0 1-2.477-1.324 1.813 1.813 0 0 1 .773-1.864c.298-.2.649-.306 1.009-.306a1.83 1.83 0 0 1 1.816 1.816ZM382.117 190.246a1.817 1.817 0 1 0-.002-3.634 1.817 1.817 0 0 0 .002 3.634Z"/></g><path fill="#5148E7" d="M194.332 190.259c16.65 0 30.148-13.497 30.148-30.148 0-16.65-13.498-30.148-30.148-30.148-16.651 0-30.148 13.498-30.148 30.148 0 16.651 13.497 30.148 30.148 30.148Z"/><path fill="#fff" d="M194.332 190.259c16.65 0 30.148-13.497 30.148-30.148 0-16.65-13.498-30.148-30.148-30.148-16.651 0-30.148 13.498-30.148 30.148 0 16.651 13.497 30.148 30.148 30.148Z" opacity=".7"/><path fill="#5148E7" d="M183.945 137.366a30.05 30.05 0 0 0-11.944 2.436 30.157 30.157 0 0 0-2.251 37.805 30.157 30.157 0 0 0 36.472 10.203 30.163 30.163 0 0 0-22.332-50.43l.055-.014Z" opacity=".2"/><path fill="#5148E7" d="M180.945 145.333a2.756 2.756 0 0 1-1.698 2.543 2.756 2.756 0 0 1-3.753-2.006 2.756 2.756 0 0 1 1.17-2.825 2.75 2.75 0 0 1 3.475.342c.516.516.806 1.216.806 1.946ZM213.363 142.581a2.756 2.756 0 0 1-1.698 2.543 2.759 2.759 0 0 1-3-.597 2.756 2.756 0 0 1-.596-2.999 2.75 2.75 0 0 1 4.488-.893c.516.516.806 1.216.806 1.946ZM207.859 162.23a4.513 4.513 0 1 1-9.027 0 4.513 4.513 0 0 1 9.027 0ZM193.523 175.096a6.028 6.028 0 1 1-12.055-.002 6.028 6.028 0 0 1 12.055.002Z" opacity=".2"/><path fill="#5148E7" d="M551.639 523.769c3.357-14.223-5.452-28.474-19.675-31.831-14.223-3.357-28.474 5.452-31.831 19.675-3.357 14.222 5.452 28.474 19.675 31.831 14.223 3.357 28.474-5.452 31.831-19.675Z"/><path fill="#fff" d="M551.639 523.769c3.357-14.223-5.452-28.474-19.675-31.831-14.223-3.357-28.474 5.452-31.831 19.675-3.357 14.222 5.452 28.474 19.675 31.831 14.223 3.357 28.474-5.452 31.831-19.675Z" opacity=".3"/><path fill="#5148E7" d="M542.596 497.204a26.445 26.445 0 0 0-24.314 45.848 26.13 26.13 0 0 0 7.61 1.128 26.463 26.463 0 0 0 24.925-17.595 26.462 26.462 0 0 0-8.221-29.381Z" opacity=".4"/><path fill="#5148E7" d="M500.628 525.632c-28.249 13.292-7.182 23.543 32.625 9.233 36.863-13.251 50.912-29.956 17.888-24.768 1.775 6.949-44.39 24.933-50.513 15.535Z"/><path fill="#000" d="M542.279 258.454c-37 25.002-84.899 58.026-98.122 137.339h-2.821c12.866-78.432 59.017-112.241 96.031-137.339h4.912Z" opacity=".2"/><path fill="#5148E7" d="M350.88 506.739c-23.392 0-46.523-10.554-57.792-27.781-6.949-10.65-15.026-32.955 9.026-62.718l2.133 1.734c-17.007 21.052-20.145 42.174-8.848 59.484 13.76 21.053 46.22 31.648 73.933 24.108 28.387-7.72 45.614-32.405 47.279-67.727 5.683-120.827 69.873-158.047 116.74-185.223 29.13-16.884 50.169-29.075 45.546-54.82-.647-3.564-2.064-6.027-4.362-7.541-5.986-3.949-17.682-1.211-31.222 1.94-26.57 6.192-62.952 14.669-84.624-22.194l2.381-1.376c20.64 35.129 54.448 27.244 81.624 20.915 14.159-3.289 26.378-6.137 33.354-1.555 2.959 1.94 4.775 5.008 5.504 9.357 4.968 27.63-17.888 40.894-46.853 57.682-46.329 26.859-109.763 63.64-115.377 183.008-1.734 36.601-19.704 62.208-49.316 70.258a72.767 72.767 0 0 1-19.126 2.449Z"/><path fill="#fff" d="M350.88 506.739c-23.392 0-46.523-10.554-57.792-27.781-6.949-10.65-15.026-32.955 9.026-62.718l2.133 1.734c-17.007 21.052-20.145 42.174-8.848 59.484 13.76 21.053 46.22 31.648 73.933 24.108 28.387-7.72 45.614-32.405 47.279-67.727 5.683-120.827 69.873-158.047 116.74-185.223 29.13-16.884 50.169-29.075 45.546-54.82-.647-3.564-2.064-6.027-4.362-7.541-5.986-3.949-17.682-1.211-31.222 1.94-26.57 6.192-62.952 14.669-84.624-22.194l2.381-1.376c20.64 35.129 54.448 27.244 81.624 20.915 14.159-3.289 26.378-6.137 33.354-1.555 2.959 1.94 4.775 5.008 5.504 9.357 4.968 27.63-17.888 40.894-46.853 57.682-46.329 26.859-109.763 63.64-115.377 183.008-1.734 36.601-19.704 62.208-49.316 70.258a72.767 72.767 0 0 1-19.126 2.449Z" opacity=".2"/><path fill="#5148E7" d="M430.355 133.472a63.36 63.36 0 0 1 18.687 2.931s15.136 25.827 16.924 31.744c-.633 5.834-10.471 15.398-10.471 15.398l-25.14-50.073Z"/><path fill="#fff" d="M430.355 133.472a63.36 63.36 0 0 1 18.687 2.931s15.136 25.827 16.924 31.744c-.633 5.834-10.471 15.398-10.471 15.398l-25.14-50.073Z" opacity=".3"/><path fill="#5148E7" d="M475.185 258.867a194.608 194.608 0 0 1-15.906-22.539 114.346 114.346 0 0 1-3.289-6.082 116.34 116.34 0 0 1-1.706-3.523 14.794 14.794 0 0 1-1.665-3.701c-1.651-17.434 4.321-30.272-1.376-44.266l-22.677 8.862s1.927 24.933 6.33 39.904c2.752 9.26 8.916 17.268 14.875 24.685 1.857 2.312 3.646 4.692 5.504 7.018 1.857 2.325 3.729 4.21 5.504 6.398 2.683 3.316 3.563 6.495 1.541 10.403l-.344.619c-.578 1.018 2.119 2.174 3.825 0 2.752-3.55 2.367-3.33 4.761-6.357a197.588 197.588 0 0 1 4.568-5.504 4.64 4.64 0 0 0 .055-5.917Z"/><path fill="#fff" d="M475.185 258.867a194.608 194.608 0 0 1-15.906-22.539 114.346 114.346 0 0 1-3.289-6.082 116.34 116.34 0 0 1-1.706-3.523 14.794 14.794 0 0 1-1.665-3.701c-1.651-17.434 4.321-30.272-1.376-44.266l-22.677 8.862s1.927 24.933 6.33 39.904c2.752 9.26 8.916 17.268 14.875 24.685 1.857 2.312 3.646 4.692 5.504 7.018 1.857 2.325 3.729 4.21 5.504 6.398 2.683 3.316 3.563 6.495 1.541 10.403l-.344.619c-.578 1.018 2.119 2.174 3.825 0 2.752-3.55 2.367-3.33 4.761-6.357a197.588 197.588 0 0 1 4.568-5.504 4.64 4.64 0 0 0 .055-5.917Z" opacity=".7"/><path fill="#5148E7" d="M469.643 251.698a75.324 75.324 0 0 1-11.916 10.347c.591.661 1.169 1.376 1.761 2.009a60.413 60.413 0 0 0 11.696-10.334l-1.541-2.022ZM475.189 258.867l-.166-.193a7.134 7.134 0 0 0-1.747 4.362 6.878 6.878 0 0 0 .523 3.234l1.307-1.555a4.64 4.64 0 0 0 .083-5.848Z" opacity=".3"/><path fill="#5148E7" d="M424.966 149.984a48.665 48.665 0 0 1-8.765 9.893 32.015 32.015 0 0 1-6.082 4.128 26.092 26.092 0 0 1-3.55 1.5l-.936.303-.302.082-.647.179a8.12 8.12 0 0 1-1.211.193 10.367 10.367 0 0 1-3.454-.317 16.813 16.813 0 0 1-4.045-1.747 34.61 34.61 0 0 1-2.959-1.94 55.62 55.62 0 0 1-4.926-4.128 73.191 73.191 0 0 1-8.256-9.274 3.46 3.46 0 0 1-.672-2.244 3.46 3.46 0 0 1 2.993-3.234 3.46 3.46 0 0 1 2.289.496h.11c3.247 2.064 6.522 4.238 9.715 6.179 1.623.949 3.192 1.912 4.747 2.655.71.372 1.44.703 2.188.991.465.206.964.327 1.472.358.082 0 0-.097-.509-.083a4.306 4.306 0 0 0-.482 0l-.303.069.455-.234a18.726 18.726 0 0 0 1.775-1.087 25.33 25.33 0 0 0 3.44-2.917 87.709 87.709 0 0 0 6.742-7.967 6.882 6.882 0 0 1 11.008 8.16l.165-.014Z"/><path fill="#fff" d="M424.966 149.984a48.665 48.665 0 0 1-8.765 9.893 32.015 32.015 0 0 1-6.082 4.128 26.092 26.092 0 0 1-3.55 1.5l-.936.303-.302.082-.647.179a8.12 8.12 0 0 1-1.211.193 10.367 10.367 0 0 1-3.454-.317 16.813 16.813 0 0 1-4.045-1.747 34.61 34.61 0 0 1-2.959-1.94 55.62 55.62 0 0 1-4.926-4.128 73.191 73.191 0 0 1-8.256-9.274 3.46 3.46 0 0 1-.672-2.244 3.46 3.46 0 0 1 2.993-3.234 3.46 3.46 0 0 1 2.289.496h.11c3.247 2.064 6.522 4.238 9.715 6.179 1.623.949 3.192 1.912 4.747 2.655.71.372 1.44.703 2.188.991.465.206.964.327 1.472.358.082 0 0-.097-.509-.083a4.306 4.306 0 0 0-.482 0l-.303.069.455-.234a18.726 18.726 0 0 0 1.775-1.087 25.33 25.33 0 0 0 3.44-2.917 87.709 87.709 0 0 0 6.742-7.967 6.882 6.882 0 0 1 11.008 8.16l.165-.014Z" opacity=".7"/><path fill="#5148E7" d="m374.67 140.93 1.61 2.752s1.225 3.605 3.688 4.265l6.687-2.16-.344-.564c-.853-1.294-.756-3.812-.467-5.903.289-2.092-.785-2.16-1.583-1.638a5.277 5.277 0 0 0-1.156 2.271 10.61 10.61 0 0 0-1.087-1.28l-2.036-2.036a2.365 2.365 0 0 0-3.22-.083l-1.651 1.472a2.354 2.354 0 0 0-.441 2.904Z"/><path fill="#fff" d="m374.67 140.93 1.61 2.752s1.225 3.605 3.688 4.265l6.687-2.16-.344-.564c-.853-1.294-.756-3.812-.467-5.903.289-2.092-.785-2.16-1.583-1.638a5.277 5.277 0 0 0-1.156 2.271 10.61 10.61 0 0 0-1.087-1.28l-2.036-2.036a2.365 2.365 0 0 0-3.22-.083l-1.651 1.472a2.354 2.354 0 0 0-.441 2.904Z" opacity=".7"/><path fill="#5148E7" d="M437.113 131.023a82.056 82.056 0 0 0-21.107 8.902 5.942 5.942 0 0 0-2.67 6.234c2.656 12.989 8.696 30.382 15.219 41.458l30.423-12.59c.206-5.366-7.183-22.731-14.709-39.519-1.349-3.013-3.95-5.256-7.156-4.485Z"/><path fill="#fff" d="M437.113 131.023a82.056 82.056 0 0 0-21.107 8.902 5.942 5.942 0 0 0-2.67 6.234c2.656 12.989 8.696 30.382 15.219 41.458l30.423-12.59c.206-5.366-7.183-22.731-14.709-39.519-1.349-3.013-3.95-5.256-7.156-4.485Z" opacity=".8"/><path fill="#5148E7" d="m448.99 146.145-6.041-2.023c1.376 3.537 6.233 8.009 9.632 10.637-1.101-2.752-2.325-5.642-3.591-8.614Z" opacity=".3"/><path fill="#5148E7" d="M435.12 117.4c-2.518-4.788-7.953-7.196-14.475-6.66-5.504.468-10.375 6.082-9.798 9.11.578 3.027 5.202 4.32 6.082 5.366l-3.811 2.752a4.132 4.132 0 0 0-1.569 4.426 4.15 4.15 0 0 0 .743 1.477c1.61 2.036 3.729 4.128 4.954 5.669 10.54-.275 18.342-4.293 21.163-8.16-1.06-4.898-.84-9.219-3.289-13.98Z"/><path fill="#fff" d="M435.12 117.4c-2.518-4.788-7.953-7.196-14.475-6.66-5.504.468-10.375 6.082-9.798 9.11.578 3.027 5.202 4.32 6.082 5.366l-3.811 2.752a4.132 4.132 0 0 0-1.569 4.426 4.15 4.15 0 0 0 .743 1.477c1.61 2.036 3.729 4.128 4.954 5.669 10.54-.275 18.342-4.293 21.163-8.16-1.06-4.898-.84-9.219-3.289-13.98Z" opacity=".8"/><path fill="#263238" d="M429.941 120.372c.749 1.919.911 4.017.467 6.028a10.412 10.412 0 0 1-14.353 7.296 10.418 10.418 0 0 1-6.233-9.75c.042-2.059.693-4.06 1.871-5.749a10.422 10.422 0 0 1 4.75-3.741 10.427 10.427 0 0 1 13.498 5.916Z"/><path fill="#5148E7" d="M519.29 244.378c-.152-4.528-.358-4.128-.482-7.94-.082-2.339-.096-4.94-.11-7.183a4.624 4.624 0 0 0-3.715-4.513c-1.817-.372-3.647-.716-5.504-1.101-2.381-.509-4.734-1.059-7.059-1.734a81.099 81.099 0 0 1-5.38-1.747c-1.775-.647-3.77-1.376-5.614-2.229a136.022 136.022 0 0 1-6.44-2.945 280.672 280.672 0 0 1-7.086-3.509c-9.055-14.984-9.247-24.864-18.962-36.45l-20.86 9.439s15.329 27.19 25.759 38.721c6.013 6.632 15.439 9.632 23.846 11.806 6.068 1.555 12.219 2.752 18.37 3.894 2.394.441 4.994.606 7.058 2.037a7.898 7.898 0 0 1 2.945 4.747c.092.385.174.771.248 1.156.261 1.156 3.082.275 2.986-2.449Z"/><path fill="#fff" d="M519.29 244.378c-.152-4.528-.358-4.128-.482-7.94-.082-2.339-.096-4.94-.11-7.183a4.624 4.624 0 0 0-3.715-4.513c-1.817-.372-3.647-.716-5.504-1.101-2.381-.509-4.734-1.059-7.059-1.734a81.099 81.099 0 0 1-5.38-1.747c-1.775-.647-3.77-1.376-5.614-2.229a136.022 136.022 0 0 1-6.44-2.945 280.672 280.672 0 0 1-7.086-3.509c-9.055-14.984-9.247-24.864-18.962-36.45l-20.86 9.439s15.329 27.19 25.759 38.721c6.013 6.632 15.439 9.632 23.846 11.806 6.068 1.555 12.219 2.752 18.37 3.894 2.394.441 4.994.606 7.058 2.037a7.898 7.898 0 0 1 2.945 4.747c.092.385.174.771.248 1.156.261 1.156 3.082.275 2.986-2.449Z" opacity=".8"/><path fill="#5148E7" d="M508.705 223.462c-.826-.179-1.651-.357-2.491-.564.069 4.761-2.16 12.962-2.972 15.453l2.615.495a52.457 52.457 0 0 0 2.848-15.384ZM518.753 229.255a4.623 4.623 0 0 0-3.701-4.513l-1.376-.261a6.299 6.299 0 0 0 2.243 3.99 7.006 7.006 0 0 0 2.752 1.569c.082-.248.082-.523.082-.785Z" opacity=".3"/><path fill="#fff" d="M428.005 120.455c.55 2.091-1.789 4.279-3.647 2.477a42.358 42.358 0 0 0-5.669-5.078c-1.912-1.197.633-3.288 3.647-2.477a8.185 8.185 0 0 1 5.669 5.078Z"/><path fill="#5148E7" d="M428.155 186.943c-.963.358.798 2.009.798 2.009s19.264-6.591 30.96-13.374a2.588 2.588 0 0 0-.935-2.175 297.121 297.121 0 0 1-30.823 13.54Z"/><path fill="#fff" d="M428.155 186.943c-.963.358.798 2.009.798 2.009s19.264-6.591 30.96-13.374a2.588 2.588 0 0 0-.935-2.175 297.121 297.121 0 0 1-30.823 13.54Z" opacity=".5"/><path fill="#5148E7" d="M442.328 130.114c3.797 1.927 7.361 3.95 11.008 6.192 1.775 1.129 3.536 2.271 5.283 3.509 1.748 1.239 3.482 2.505 5.229 3.936l.647.536.812.743c.484.433.943.893 1.376 1.376.44.482.812.95 1.169 1.376.358.427.743.936 1.06 1.376a60.476 60.476 0 0 1 3.55 5.504 81.31 81.31 0 0 1 5.504 11.49 3.464 3.464 0 0 1-1.406 4.165 3.466 3.466 0 0 1-4.359-.56l-.069-.083c-2.752-2.93-5.408-6.013-8.077-8.888-2.67-2.876-5.381-5.793-7.623-7.073-3.124-1.94-6.605-3.88-10.059-5.779l-10.403-5.78a6.879 6.879 0 0 1 1.196-12.659 6.881 6.881 0 0 1 5.244.496l-.082.123Z"/><path fill="#fff" d="M442.328 130.114c3.797 1.927 7.361 3.95 11.008 6.192 1.775 1.129 3.536 2.271 5.283 3.509 1.748 1.239 3.482 2.505 5.229 3.936l.647.536.812.743c.484.433.943.893 1.376 1.376.44.482.812.95 1.169 1.376.358.427.743.936 1.06 1.376a60.476 60.476 0 0 1 3.55 5.504 81.31 81.31 0 0 1 5.504 11.49 3.464 3.464 0 0 1-1.406 4.165 3.466 3.466 0 0 1-4.359-.56l-.069-.083c-2.752-2.93-5.408-6.013-8.077-8.888-2.67-2.876-5.381-5.793-7.623-7.073-3.124-1.94-6.605-3.88-10.059-5.779l-10.403-5.78a6.879 6.879 0 0 1 1.196-12.659 6.881 6.881 0 0 1 5.244.496l-.082.123Z" opacity=".8"/><path fill="#5148E7" d="m481.228 173.018-1.17-2.931s-.647-3.742-2.972-4.788l-6.88 1.087.234.605c.633 1.376.151 3.894-.468 5.903-.619 2.009.427 2.271 1.307 1.872.496-.22.977-1.115 1.5-2.064.257.478.546.938.867 1.376l1.692 2.325a2.369 2.369 0 0 0 3.165.606l1.871-1.198a2.336 2.336 0 0 0 .854-2.793Z"/><path fill="#fff" d="m481.228 173.018-1.17-2.931s-.647-3.742-2.972-4.788l-6.88 1.087.234.605c.633 1.376.151 3.894-.468 5.903-.619 2.009.427 2.271 1.307 1.872.496-.22.977-1.115 1.5-2.064.257.478.546.938.867 1.376l1.692 2.325a2.369 2.369 0 0 0 3.165.606l1.871-1.198a2.336 2.336 0 0 0 .854-2.793Z" opacity=".8"/><path fill="#5148E7" d="m436.52 145.938-1.679.138-10.306 24.878a5.514 5.514 0 0 0 1.679-.137s13.43-5.009 17.489-6.88c-2.725-5.628-7.183-17.999-7.183-17.999Z" opacity=".3"/><path fill="#fff" d="M417.715 152.461a59.714 59.714 0 0 0 6.88 18.493c5.036-1.734 13.43-5.009 17.503-6.88a185.948 185.948 0 0 1-7.279-17.998c-4.307.289-13.76 3.908-17.104 6.385Z"/><path fill="#5148E7" d="M427.936 157.841a3.553 3.553 0 0 1-5.064 2.12 3.556 3.556 0 0 1-1.872-3.473 3.552 3.552 0 0 1 6.66-1.348c.446.828.545 1.8.276 2.701Z" opacity=".3"/><path fill="#5148E7" d="M430.566 153.108a1.17 1.17 0 0 1-1.658.782 1.17 1.17 0 1 1 1.544-1.622c.143.255.184.555.114.84ZM433.644 151.91a1.15 1.15 0 0 1-.192.444 1.155 1.155 0 0 1-.811.485 1.172 1.172 0 0 1-1.199-.658 1.159 1.159 0 0 1-.027-.945 1.149 1.149 0 0 1 .562-.685 1.164 1.164 0 0 1 1.572.476c.146.27.181.588.095.883Z" opacity=".6"/><path fill="#5148E7" d="m437.965 162.629-12.728 5.023-.757-2.504 12.715-5.023.77 2.504Z" opacity=".5"/><path fill="#000" d="M367.751 353.866a129.243 129.243 0 0 1-2.312 23.873c-1.623 7.073-4.146 12.247-7.568 15.522a16.912 16.912 0 0 1-12.122 4.912c-7.073 0-12.471-3.857-16.196-11.572a32.83 32.83 0 0 1-1.665-4.279 198.52 198.52 0 0 0-21.906 22.016l-7.306 8.613a53.13 53.13 0 0 0 13.443 9.894c8.568 4.43 19.815 6.65 33.74 6.66 2.449 0 4.816-.069 7.114-.207a197.28 197.28 0 0 0 20.777-39.904l20.434-53.279-26.433 17.751Z" opacity=".2"/><path fill="#263238" d="m183.547 426.56 24.08 24.08 67.424-63.53c-23.241-8.875-68.429 16.319-91.504 39.45ZM267.525 510.496c-7.692-7.706-24.08-24.08-24.08-24.08l63.53-67.424c8.82 23.186-16.374 68.415-39.45 91.504Z"/><path fill="#5148E7" d="m359.688 358.723 26.268-50.65-50.65 26.295a198.478 198.478 0 0 0-44.638 31.648l-86.344 81.28 42.422 42.422 81.281-86.344a198.424 198.424 0 0 0 31.661-44.651Z"/><path fill="#fff" d="m359.688 358.723 26.268-50.65-50.65 26.295a198.478 198.478 0 0 0-44.638 31.648l-86.344 81.28 42.422 42.422 81.281-86.344a198.424 198.424 0 0 0 31.661-44.651Z" opacity=".6"/><path fill="#fff" d="M305.75 406.03c9.804 0 17.751-7.947 17.751-17.75 0-9.804-7.947-17.751-17.751-17.751-9.803 0-17.75 7.947-17.75 17.751 0 9.803 7.947 17.75 17.75 17.75Z"/><path fill="#5148E7" d="M305.751 399.687c6.3 0 11.407-5.107 11.407-11.407s-5.107-11.407-11.407-11.407-11.407 5.107-11.407 11.407 5.107 11.407 11.407 11.407Z"/><path fill="#5148E7" d="m261.1 474.472-41.541-41.541 34.014-32.006 39.533 39.546-32.006 34.001Z" opacity=".3"/><path fill="#5148E7" d="M192.944 464.565c-31.097 2.518-41.404 22.429-44.926 48.889-1.789 13.499-2.587 27.163-13.911 35.061a3.815 3.815 0 0 0-.061 6.262c.672.476 1.48.722 2.303.7 41.748-1.307 61.219-21.74 63.668-30.272a59.243 59.243 0 0 1-3.426 13.031 3.793 3.793 0 0 0 1.064 4.324 3.794 3.794 0 0 0 4.44.341c11.709-7.334 26.405-20.847 27.382-42.766-8.614-12.205-36.533-35.57-36.533-35.57Z"/><path fill="#fff" d="M192.944 464.565c-31.097 2.518-41.404 22.429-44.926 48.889-1.789 13.499-2.587 27.163-13.911 35.061a3.815 3.815 0 0 0-.061 6.262c.672.476 1.48.722 2.303.7 41.748-1.307 61.219-21.74 63.668-30.272a59.243 59.243 0 0 1-3.426 13.031 3.793 3.793 0 0 0 1.064 4.324 3.794 3.794 0 0 0 4.44.341c11.709-7.334 26.405-20.847 27.382-42.766-8.614-12.205-36.533-35.57-36.533-35.57Z" opacity=".2"/><path fill="#5148E7" d="m234.307 509.533-49.811-49.811 26.529-5.738 29.02 29.019-5.738 26.53Z"/></svg>