<svg xmlns="http://www.w3.org/2000/svg" width="24" height="24" fill="none"><g fill="#99A0A8" clip-path="url(#a)"><path fill-rule="evenodd" d="m2 .586 4.67 4.67A11.837 11.837 0 0 1 12 4c5.111 0 9.476 3.208 10.95 7.688l.103.312-.103.313c-.707 2.147-2.078 4-3.873 5.35L23.414 22 22 23.414.586 2 2 .586ZM17.645 16.23c1.506-1.062 2.663-2.533 3.296-4.23-1.294-3.475-4.79-6-8.94-6a9.874 9.874 0 0 0-3.825.761l1.766 1.765A4.245 4.245 0 0 1 11.999 8c2.244 0 4.144 1.747 4.144 4 0 .777-.23 1.499-.621 2.108l2.123 2.123Zm-3.608-3.608c.07-.197.106-.406.106-.623 0-1.06-.915-2-2.144-2-.181 0-.357.021-.524.06l2.562 2.563Z" clip-rule="evenodd"/><path d="m4.923 8.933-.606.795A8.825 8.825 0 0 0 3.06 12c1.294 3.475 4.79 6 8.94 6 .408 0 .809-.024 1.202-.071l.993-.12.239 1.986-.993.12A12.08 12.08 0 0 1 12 20c-5.112 0-9.476-3.208-10.95-7.687L.946 12l.103-.313a10.8 10.8 0 0 1 1.676-3.172l.607-.795 1.59 1.213Z"/></g><defs><clipPath id="a"><path fill="#fff" d="M0 0h24v24H0z"/></clipPath></defs></svg>