<!-- COLORFUL ICON -->
<!-- <svg xmlns="http://www.w3.org/2000/svg" width="25" height="24" fill="none"><g fill-rule="evenodd" clip-path="url(#a)" clip-rule="evenodd"><path fill="#4285F4" d="M24.02 12.273c0-.851-.076-1.67-.218-2.455H12.5v4.642h6.458a5.52 5.52 0 0 1-2.394 3.622v3.01h3.878c2.269-2.088 3.578-5.165 3.578-8.82Z"/><path fill="#34A853" d="M12.5 24c3.24 0 5.956-1.075 7.942-2.907l-3.878-3.011c-1.075.72-2.45 1.145-4.064 1.145-3.125 0-5.77-2.11-6.715-4.947H1.776v3.11A11.996 11.996 0 0 0 12.5 24Z"/><path fill="#FBBC05" d="M5.785 14.28A7.213 7.213 0 0 1 5.41 12c0-.79.136-1.56.376-2.28V6.61H1.776A11.995 11.995 0 0 0 .5 12c0 1.936.464 3.77 1.276 5.39l4.01-3.11Z"/><path fill="#EA4335" d="M12.5 4.773c1.762 0 3.344.605 4.587 1.794l3.442-3.442C18.451 1.19 15.735 0 12.5 0 7.81 0 3.75 2.69 1.776 6.61l4.01 3.11c.943-2.836 3.589-4.947 6.714-4.947Z"/></g><defs><clipPath id="a"><path fill="#fff" d="M.5 0h24v24H.5z"/></clipPath></defs></svg> -->


<!-- WHITE ICON  -->
<svg xmlns="http://www.w3.org/2000/svg" width="18" height="18" fill="#fff" class="bi bi-google" viewBox="0 0 16 16">
<path d="M15.545 6.558a9.42 9.42 0 0 1 .139 1.626c0 2.434-.87 4.492-2.384 5.885h.002C11.978 15.292 10.158 16 8 16A8 8 0 1 1 8 0a7.689 7.689 0 0 1 5.352 2.082l-2.284 2.284A4.347 4.347 0 0 0 8 3.166c-2.087 0-3.86 1.408-4.492 3.304a4.792 4.792 0 0 0 0 3.063h.003c.635 1.893 2.405 3.301 4.492 3.301 1.078 0 2.004-.276 2.722-.764h-.003a3.702 3.702 0 0 0 1.599-2.431H8v-3.08h7.545z"></path>
</svg>